<svg width="93" height="73" xmlns="http://www.w3.org/2000/svg" fill="none">
 <g id="Layer_1">
  <title>Layer 1</title>
  <g id="svg_3">
   <g>
    <path stroke-linejoin="round" stroke-linecap="round" stroke-width="2" stroke="#C7C7C7" fill="#C7C7C7" d="m8.21079,32.39078c-2.26827,-5.6675 -3.91776,-9.8949 -5.32179,-13.2779c-3.26182,-7.8593 1.80436,-18.36568 10.31318,-18.45947l59.219,-0.65279c5.5089,-0.06072 10.0292,4.34558 10.1092,9.85416l0.7742,53.3174c0.0814,5.6073 -4.4633,10.1854 -10.071,10.1449l-57.4882,-0.4143c-1.1022,-0.0079 -2.2,-0.1863 -3.2222,-0.5987c-8.22814,-3.3202 -15.75864,-9.9441 -11.08828,-18.3863c4.31708,-7.8035 5.37857,-5.469 6.80961,-9.026c0.51457,-1.2789 0.47847,-11.2211 -0.03372,-12.501z"/>
   </g>
   <g>
    <path stroke-linejoin="round" stroke-linecap="round" stroke-width="2" stroke="#F56844" fill-opacity="0.96" fill="#FF6941" d="m18.2108,32.39078c-2.26827,-5.6675 -3.91776,-9.8949 -5.32178,-13.2779c-3.26183,-7.8593 1.80435,-18.36568 10.31314,-18.45947l59.219,-0.65279c5.5089,-0.06072 10.0292,4.34558 10.1092,9.85416l0.7742,53.3174c0.0814,5.6073 -4.4633,10.1854 -10.071,10.1449l-57.4881,-0.4143c-1.1022,-0.0079 -2.2001,-0.1863 -3.2222,-0.5987c-8.22821,-3.3202 -15.7587,-9.9441 -11.08835,-18.3863c4.31708,-7.8035 5.37857,-5.469 6.80961,-9.026c0.51454,-1.2789 0.47854,-11.2211 -0.03372,-12.501z"/>
   </g>
  </g>
 </g>

</svg>