<svg width="36" height="36" viewBox="0 0 36 36" fill="none" xmlns="http://www.w3.org/2000/svg">
<circle cx="18" cy="18" r="18" fill="#535252"/>
<mask id="path-2-outside-1_2_235" maskUnits="userSpaceOnUse" x="9" y="6" width="19" height="24" fill="black">
<rect fill="white" x="9" y="6" width="19" height="24"/>
<path d="M24.1461 21.3647C22.9585 21.0068 21.7569 20.6908 21.5262 20.6306L20.535 19.6394V18.4495V18.449C21.7476 17.7898 22.5726 16.5053 22.5751 15.0313C22.6604 15.079 22.7581 15.1066 22.8626 15.1066C23.1882 15.1066 23.4528 14.8416 23.4528 14.5161V13.6814C23.4528 13.3557 23.1882 13.0909 22.8626 13.0909C22.7581 13.0909 22.6603 13.1185 22.5752 13.1662V10.894C22.5752 8.74686 20.8284 7 18.6811 7H18.0341C15.8868 7 14.1399 8.74686 14.1399 10.894V13.1662C14.0549 13.1185 13.9569 13.0909 13.8526 13.0909C13.5269 13.0909 13.2621 13.3559 13.2621 13.6814V14.5161C13.2621 14.8418 13.5271 15.1066 13.8526 15.1066C13.9569 15.1066 14.0549 15.079 14.1401 15.0313C14.1425 16.5054 14.9679 17.79 16.1807 18.4491V19.639L15.1348 20.6858C14.9115 20.7444 13.7679 21.0474 12.6377 21.3925C10 22.1977 10 22.4372 10 22.5956V26.1389C10 26.1424 10.0007 26.1457 10.001 26.1493C10.0012 26.1549 10.0017 26.1602 10.0028 26.1658C10.0038 26.1705 10.005 26.1752 10.0062 26.1797C10.0078 26.1844 10.009 26.1894 10.0109 26.1939C10.0127 26.1986 10.0149 26.2029 10.0172 26.2071C10.0194 26.2116 10.0217 26.2158 10.0239 26.2201C10.0267 26.2243 10.0297 26.2283 10.033 26.2321C10.0359 26.2359 10.0387 26.2395 10.042 26.243C10.046 26.247 10.0505 26.2506 10.055 26.2543C10.0574 26.2565 10.0595 26.259 10.0623 26.261C10.8401 26.8307 11.6778 27.3217 12.5519 27.7206C12.5526 27.7207 12.5537 27.7211 12.5544 27.7216C12.5554 27.7218 12.5563 27.7226 12.5577 27.7228C14.4128 28.5702 16.3967 29 18.4537 29C20.5109 29 22.4946 28.5702 24.351 27.7232C24.352 27.723 24.3529 27.7225 24.3543 27.722C24.3548 27.7214 24.3558 27.7213 24.3565 27.7209C25.2307 27.322 26.0683 26.8307 26.8462 26.2614C26.8491 26.2595 26.8512 26.2569 26.8535 26.2546C26.858 26.2512 26.8625 26.2473 26.8665 26.2434C26.8698 26.2399 26.8724 26.2361 26.8755 26.2324C26.8788 26.2284 26.8818 26.2248 26.8845 26.2205C26.8873 26.2163 26.8892 26.2119 26.8915 26.2078C26.8937 26.2033 26.896 26.1991 26.8974 26.1944C26.8993 26.1897 26.9007 26.1851 26.9019 26.1802C26.9034 26.1755 26.9048 26.1708 26.9057 26.166C26.9067 26.1604 26.9073 26.155 26.9074 26.1495C26.9076 26.146 26.9085 26.1427 26.9085 26.1391L26.9079 22.5958C26.9078 22.4372 26.9078 22.1974 24.1462 21.3647L24.1461 21.3647ZM20.3831 19.9163L22.034 21.5672L20.223 23.3782L18.5721 21.7273L20.3831 19.9163ZM22.8627 13.394C23.0214 13.394 23.1502 13.5231 23.1502 13.6815V14.5162C23.1502 14.6747 23.0211 14.8038 22.8627 14.8038C22.7043 14.8038 22.5753 14.6747 22.5753 14.5162V13.6815C22.575 13.5231 22.7041 13.394 22.8627 13.394ZM18.034 7.30302H18.681C20.6614 7.30302 22.2723 8.91405 22.2723 10.8943V11.6801C20.6793 12.1086 19.2358 11.8937 17.9797 11.0398C17.0159 10.3847 16.529 9.57751 16.5243 9.56952C16.4888 9.51001 16.4178 9.4819 16.3517 9.50133C16.2852 9.52076 16.2408 9.58236 16.2427 9.65158C16.2773 10.7445 14.9576 11.435 14.4426 11.6622V10.8943C14.4424 8.91403 16.0535 7.303 18.034 7.303L18.034 7.30302ZM13.8522 14.8043C13.6935 14.8043 13.5647 14.6752 13.5647 14.5168V13.682C13.5647 13.5233 13.6938 13.3945 13.8522 13.3945C14.0106 13.3945 14.1395 13.5236 14.1395 13.682V14.5168C14.1395 14.6752 14.0106 14.8043 13.8522 14.8043ZM14.4425 15.0253V11.9923C14.8376 11.8338 16.241 11.1978 16.5037 10.0665C16.7468 10.3797 17.175 10.857 17.7984 11.2828C18.4668 11.7395 19.4561 12.193 20.7492 12.193C21.2174 12.193 21.7252 12.1332 22.2719 11.993V15.0254C22.2719 17.0056 20.6609 18.6166 18.6807 18.6166H18.0337C16.0535 18.6166 14.4424 17.0056 14.4424 15.0254L14.4425 15.0253ZM18.034 18.9197H18.681C19.2323 18.9197 19.7566 18.8038 20.2318 18.5966V19.6395L18.3576 21.5141L16.4834 19.6399V18.597C16.9586 18.804 17.483 18.9197 18.034 18.9197V18.9197ZM16.3321 19.9164L18.1434 21.7277L16.493 23.3788L14.6818 21.5675L16.3321 19.9164ZM12.7657 27.4843V26.1742C12.7657 26.0905 12.698 26.0229 12.6142 26.0229C12.5306 26.0229 12.4629 26.0905 12.4629 26.1742V27.344C11.7078 26.9832 10.9824 26.5528 10.3024 26.0607V22.6181C10.5101 22.3548 12.6043 21.6786 14.7086 21.1121L14.3609 21.4604C14.3019 21.5193 14.3019 21.6153 14.3609 21.6743L16.3861 23.6995C16.4144 23.7277 16.4532 23.7437 16.4933 23.7437C16.5334 23.7437 16.5719 23.7277 16.6005 23.6995L18.3578 21.9411L20.1159 23.6993C20.1442 23.7276 20.1829 23.7435 20.2232 23.7435C20.2632 23.7435 20.3018 23.7276 20.3304 23.6993L22.3556 21.6741C22.3838 21.6458 22.4001 21.6071 22.4001 21.5672C22.4001 21.527 22.3842 21.4886 22.3556 21.46L21.9513 21.0557C24.1692 21.6475 26.3847 22.3517 26.6054 22.6201V26.0611C25.9256 26.5531 25.2003 26.9836 24.4448 27.3443V26.1745C24.4448 26.0909 24.3772 26.0233 24.2936 26.0233C24.2098 26.0233 24.1421 26.0909 24.1421 26.1745V27.4847C22.3493 28.2886 20.4365 28.6972 18.4535 28.6972C16.4708 28.6972 14.5578 28.2885 12.7658 27.4843L12.7657 27.4843Z"/>
</mask>
<path d="M24.1461 21.3647C22.9585 21.0068 21.7569 20.6908 21.5262 20.6306L20.535 19.6394V18.4495V18.449C21.7476 17.7898 22.5726 16.5053 22.5751 15.0313C22.6604 15.079 22.7581 15.1066 22.8626 15.1066C23.1882 15.1066 23.4528 14.8416 23.4528 14.5161V13.6814C23.4528 13.3557 23.1882 13.0909 22.8626 13.0909C22.7581 13.0909 22.6603 13.1185 22.5752 13.1662V10.894C22.5752 8.74686 20.8284 7 18.6811 7H18.0341C15.8868 7 14.1399 8.74686 14.1399 10.894V13.1662C14.0549 13.1185 13.9569 13.0909 13.8526 13.0909C13.5269 13.0909 13.2621 13.3559 13.2621 13.6814V14.5161C13.2621 14.8418 13.5271 15.1066 13.8526 15.1066C13.9569 15.1066 14.0549 15.079 14.1401 15.0313C14.1425 16.5054 14.9679 17.79 16.1807 18.4491V19.639L15.1348 20.6858C14.9115 20.7444 13.7679 21.0474 12.6377 21.3925C10 22.1977 10 22.4372 10 22.5956V26.1389C10 26.1424 10.0007 26.1457 10.001 26.1493C10.0012 26.1549 10.0017 26.1602 10.0028 26.1658C10.0038 26.1705 10.005 26.1752 10.0062 26.1797C10.0078 26.1844 10.009 26.1894 10.0109 26.1939C10.0127 26.1986 10.0149 26.2029 10.0172 26.2071C10.0194 26.2116 10.0217 26.2158 10.0239 26.2201C10.0267 26.2243 10.0297 26.2283 10.033 26.2321C10.0359 26.2359 10.0387 26.2395 10.042 26.243C10.046 26.247 10.0505 26.2506 10.055 26.2543C10.0574 26.2565 10.0595 26.259 10.0623 26.261C10.8401 26.8307 11.6778 27.3217 12.5519 27.7206C12.5526 27.7207 12.5537 27.7211 12.5544 27.7216C12.5554 27.7218 12.5563 27.7226 12.5577 27.7228C14.4128 28.5702 16.3967 29 18.4537 29C20.5109 29 22.4946 28.5702 24.351 27.7232C24.352 27.723 24.3529 27.7225 24.3543 27.722C24.3548 27.7214 24.3558 27.7213 24.3565 27.7209C25.2307 27.322 26.0683 26.8307 26.8462 26.2614C26.8491 26.2595 26.8512 26.2569 26.8535 26.2546C26.858 26.2512 26.8625 26.2473 26.8665 26.2434C26.8698 26.2399 26.8724 26.2361 26.8755 26.2324C26.8788 26.2284 26.8818 26.2248 26.8845 26.2205C26.8873 26.2163 26.8892 26.2119 26.8915 26.2078C26.8937 26.2033 26.896 26.1991 26.8974 26.1944C26.8993 26.1897 26.9007 26.1851 26.9019 26.1802C26.9034 26.1755 26.9048 26.1708 26.9057 26.166C26.9067 26.1604 26.9073 26.155 26.9074 26.1495C26.9076 26.146 26.9085 26.1427 26.9085 26.1391L26.9079 22.5958C26.9078 22.4372 26.9078 22.1974 24.1462 21.3647L24.1461 21.3647ZM20.3831 19.9163L22.034 21.5672L20.223 23.3782L18.5721 21.7273L20.3831 19.9163ZM22.8627 13.394C23.0214 13.394 23.1502 13.5231 23.1502 13.6815V14.5162C23.1502 14.6747 23.0211 14.8038 22.8627 14.8038C22.7043 14.8038 22.5753 14.6747 22.5753 14.5162V13.6815C22.575 13.5231 22.7041 13.394 22.8627 13.394ZM18.034 7.30302H18.681C20.6614 7.30302 22.2723 8.91405 22.2723 10.8943V11.6801C20.6793 12.1086 19.2358 11.8937 17.9797 11.0398C17.0159 10.3847 16.529 9.57751 16.5243 9.56952C16.4888 9.51001 16.4178 9.4819 16.3517 9.50133C16.2852 9.52076 16.2408 9.58236 16.2427 9.65158C16.2773 10.7445 14.9576 11.435 14.4426 11.6622V10.8943C14.4424 8.91403 16.0535 7.303 18.034 7.303L18.034 7.30302ZM13.8522 14.8043C13.6935 14.8043 13.5647 14.6752 13.5647 14.5168V13.682C13.5647 13.5233 13.6938 13.3945 13.8522 13.3945C14.0106 13.3945 14.1395 13.5236 14.1395 13.682V14.5168C14.1395 14.6752 14.0106 14.8043 13.8522 14.8043ZM14.4425 15.0253V11.9923C14.8376 11.8338 16.241 11.1978 16.5037 10.0665C16.7468 10.3797 17.175 10.857 17.7984 11.2828C18.4668 11.7395 19.4561 12.193 20.7492 12.193C21.2174 12.193 21.7252 12.1332 22.2719 11.993V15.0254C22.2719 17.0056 20.6609 18.6166 18.6807 18.6166H18.0337C16.0535 18.6166 14.4424 17.0056 14.4424 15.0254L14.4425 15.0253ZM18.034 18.9197H18.681C19.2323 18.9197 19.7566 18.8038 20.2318 18.5966V19.6395L18.3576 21.5141L16.4834 19.6399V18.597C16.9586 18.804 17.483 18.9197 18.034 18.9197V18.9197ZM16.3321 19.9164L18.1434 21.7277L16.493 23.3788L14.6818 21.5675L16.3321 19.9164ZM12.7657 27.4843V26.1742C12.7657 26.0905 12.698 26.0229 12.6142 26.0229C12.5306 26.0229 12.4629 26.0905 12.4629 26.1742V27.344C11.7078 26.9832 10.9824 26.5528 10.3024 26.0607V22.6181C10.5101 22.3548 12.6043 21.6786 14.7086 21.1121L14.3609 21.4604C14.3019 21.5193 14.3019 21.6153 14.3609 21.6743L16.3861 23.6995C16.4144 23.7277 16.4532 23.7437 16.4933 23.7437C16.5334 23.7437 16.5719 23.7277 16.6005 23.6995L18.3578 21.9411L20.1159 23.6993C20.1442 23.7276 20.1829 23.7435 20.2232 23.7435C20.2632 23.7435 20.3018 23.7276 20.3304 23.6993L22.3556 21.6741C22.3838 21.6458 22.4001 21.6071 22.4001 21.5672C22.4001 21.527 22.3842 21.4886 22.3556 21.46L21.9513 21.0557C24.1692 21.6475 26.3847 22.3517 26.6054 22.6201V26.0611C25.9256 26.5531 25.2003 26.9836 24.4448 27.3443V26.1745C24.4448 26.0909 24.3772 26.0233 24.2936 26.0233C24.2098 26.0233 24.1421 26.0909 24.1421 26.1745V27.4847C22.3493 28.2886 20.4365 28.6972 18.4535 28.6972C16.4708 28.6972 14.5578 28.2885 12.7658 27.4843L12.7657 27.4843Z" fill="white"/>
<path d="M24.1461 21.3647C22.9585 21.0068 21.7569 20.6908 21.5262 20.6306L20.535 19.6394V18.4495V18.449C21.7476 17.7898 22.5726 16.5053 22.5751 15.0313C22.6604 15.079 22.7581 15.1066 22.8626 15.1066C23.1882 15.1066 23.4528 14.8416 23.4528 14.5161V13.6814C23.4528 13.3557 23.1882 13.0909 22.8626 13.0909C22.7581 13.0909 22.6603 13.1185 22.5752 13.1662V10.894C22.5752 8.74686 20.8284 7 18.6811 7H18.0341C15.8868 7 14.1399 8.74686 14.1399 10.894V13.1662C14.0549 13.1185 13.9569 13.0909 13.8526 13.0909C13.5269 13.0909 13.2621 13.3559 13.2621 13.6814V14.5161C13.2621 14.8418 13.5271 15.1066 13.8526 15.1066C13.9569 15.1066 14.0549 15.079 14.1401 15.0313C14.1425 16.5054 14.9679 17.79 16.1807 18.4491V19.639L15.1348 20.6858C14.9115 20.7444 13.7679 21.0474 12.6377 21.3925C10 22.1977 10 22.4372 10 22.5956V26.1389C10 26.1424 10.0007 26.1457 10.001 26.1493C10.0012 26.1549 10.0017 26.1602 10.0028 26.1658C10.0038 26.1705 10.005 26.1752 10.0062 26.1797C10.0078 26.1844 10.009 26.1894 10.0109 26.1939C10.0127 26.1986 10.0149 26.2029 10.0172 26.2071C10.0194 26.2116 10.0217 26.2158 10.0239 26.2201C10.0267 26.2243 10.0297 26.2283 10.033 26.2321C10.0359 26.2359 10.0387 26.2395 10.042 26.243C10.046 26.247 10.0505 26.2506 10.055 26.2543C10.0574 26.2565 10.0595 26.259 10.0623 26.261C10.8401 26.8307 11.6778 27.3217 12.5519 27.7206C12.5526 27.7207 12.5537 27.7211 12.5544 27.7216C12.5554 27.7218 12.5563 27.7226 12.5577 27.7228C14.4128 28.5702 16.3967 29 18.4537 29C20.5109 29 22.4946 28.5702 24.351 27.7232C24.352 27.723 24.3529 27.7225 24.3543 27.722C24.3548 27.7214 24.3558 27.7213 24.3565 27.7209C25.2307 27.322 26.0683 26.8307 26.8462 26.2614C26.8491 26.2595 26.8512 26.2569 26.8535 26.2546C26.858 26.2512 26.8625 26.2473 26.8665 26.2434C26.8698 26.2399 26.8724 26.2361 26.8755 26.2324C26.8788 26.2284 26.8818 26.2248 26.8845 26.2205C26.8873 26.2163 26.8892 26.2119 26.8915 26.2078C26.8937 26.2033 26.896 26.1991 26.8974 26.1944C26.8993 26.1897 26.9007 26.1851 26.9019 26.1802C26.9034 26.1755 26.9048 26.1708 26.9057 26.166C26.9067 26.1604 26.9073 26.155 26.9074 26.1495C26.9076 26.146 26.9085 26.1427 26.9085 26.1391L26.9079 22.5958C26.9078 22.4372 26.9078 22.1974 24.1462 21.3647L24.1461 21.3647ZM20.3831 19.9163L22.034 21.5672L20.223 23.3782L18.5721 21.7273L20.3831 19.9163ZM22.8627 13.394C23.0214 13.394 23.1502 13.5231 23.1502 13.6815V14.5162C23.1502 14.6747 23.0211 14.8038 22.8627 14.8038C22.7043 14.8038 22.5753 14.6747 22.5753 14.5162V13.6815C22.575 13.5231 22.7041 13.394 22.8627 13.394ZM18.034 7.30302H18.681C20.6614 7.30302 22.2723 8.91405 22.2723 10.8943V11.6801C20.6793 12.1086 19.2358 11.8937 17.9797 11.0398C17.0159 10.3847 16.529 9.57751 16.5243 9.56952C16.4888 9.51001 16.4178 9.4819 16.3517 9.50133C16.2852 9.52076 16.2408 9.58236 16.2427 9.65158C16.2773 10.7445 14.9576 11.435 14.4426 11.6622V10.8943C14.4424 8.91403 16.0535 7.303 18.034 7.303L18.034 7.30302ZM13.8522 14.8043C13.6935 14.8043 13.5647 14.6752 13.5647 14.5168V13.682C13.5647 13.5233 13.6938 13.3945 13.8522 13.3945C14.0106 13.3945 14.1395 13.5236 14.1395 13.682V14.5168C14.1395 14.6752 14.0106 14.8043 13.8522 14.8043ZM14.4425 15.0253V11.9923C14.8376 11.8338 16.241 11.1978 16.5037 10.0665C16.7468 10.3797 17.175 10.857 17.7984 11.2828C18.4668 11.7395 19.4561 12.193 20.7492 12.193C21.2174 12.193 21.7252 12.1332 22.2719 11.993V15.0254C22.2719 17.0056 20.6609 18.6166 18.6807 18.6166H18.0337C16.0535 18.6166 14.4424 17.0056 14.4424 15.0254L14.4425 15.0253ZM18.034 18.9197H18.681C19.2323 18.9197 19.7566 18.8038 20.2318 18.5966V19.6395L18.3576 21.5141L16.4834 19.6399V18.597C16.9586 18.804 17.483 18.9197 18.034 18.9197V18.9197ZM16.3321 19.9164L18.1434 21.7277L16.493 23.3788L14.6818 21.5675L16.3321 19.9164ZM12.7657 27.4843V26.1742C12.7657 26.0905 12.698 26.0229 12.6142 26.0229C12.5306 26.0229 12.4629 26.0905 12.4629 26.1742V27.344C11.7078 26.9832 10.9824 26.5528 10.3024 26.0607V22.6181C10.5101 22.3548 12.6043 21.6786 14.7086 21.1121L14.3609 21.4604C14.3019 21.5193 14.3019 21.6153 14.3609 21.6743L16.3861 23.6995C16.4144 23.7277 16.4532 23.7437 16.4933 23.7437C16.5334 23.7437 16.5719 23.7277 16.6005 23.6995L18.3578 21.9411L20.1159 23.6993C20.1442 23.7276 20.1829 23.7435 20.2232 23.7435C20.2632 23.7435 20.3018 23.7276 20.3304 23.6993L22.3556 21.6741C22.3838 21.6458 22.4001 21.6071 22.4001 21.5672C22.4001 21.527 22.3842 21.4886 22.3556 21.46L21.9513 21.0557C24.1692 21.6475 26.3847 22.3517 26.6054 22.6201V26.0611C25.9256 26.5531 25.2003 26.9836 24.4448 27.3443V26.1745C24.4448 26.0909 24.3772 26.0233 24.2936 26.0233C24.2098 26.0233 24.1421 26.0909 24.1421 26.1745V27.4847C22.3493 28.2886 20.4365 28.6972 18.4535 28.6972C16.4708 28.6972 14.5578 28.2885 12.7658 27.4843L12.7657 27.4843Z" stroke="white" stroke-width="0.5" mask="url(#path-2-outside-1_2_235)"/>
</svg>
