<svg width="36" height="36" viewBox="0 0 36 36" fill="none" xmlns="http://www.w3.org/2000/svg">
<circle cx="18" cy="18" r="18" fill="#FF6941"/>
<path d="M16.5883 13.9722C15.419 13.9696 14.2974 14.4346 13.4729 15.2637L12.9979 15.7387L12.5229 15.2637H12.5233C11.4113 14.15 9.78953 13.7142 8.26875 14.1203C6.74797 14.5264 5.55986 15.7132 5.15105 17.233C4.74262 18.7531 5.17589 20.3755 6.2882 21.4894L12.661 27.8619C12.8461 28.046 13.1452 28.046 13.3304 27.8619L19.7032 21.4894C20.527 20.6626 20.9891 19.5427 20.9881 18.3757C20.9874 17.2087 20.5237 16.0895 19.6989 15.264C18.8737 14.4386 17.7551 13.9738 16.5881 13.9722H16.5883ZM19.0292 20.82L12.9982 26.8553L6.96228 20.8197C6.13649 19.938 5.83073 18.6888 6.15604 17.5251C6.48132 16.3614 7.39062 15.4522 8.55422 15.1269C9.71791 14.8016 10.967 15.1074 11.8488 15.9332L12.6607 16.75H12.661C12.8462 16.9342 13.1453 16.9342 13.3305 16.75L14.152 15.9332C14.7962 15.2693 15.6803 14.8918 16.6055 14.8851C17.5307 14.8785 18.4198 15.2435 19.0733 15.8984C19.7269 16.5533 20.0902 17.4433 20.082 18.3685C20.0738 19.2936 19.6944 20.1767 19.029 20.8197L19.0292 20.82Z" fill="white"/>
<path d="M29.6142 10.2962C28.7877 9.47007 27.6675 9.00633 26.4992 9.00633C25.3309 9.00633 24.2103 9.47007 23.3839 10.2962L22.9089 10.7712L22.4338 10.2962H22.4342C21.6779 9.53666 20.671 9.07917 19.6014 9.0093C18.5322 8.93973 17.4738 9.26237 16.6255 9.91723C15.7772 10.5721 15.1965 11.5138 14.9931 12.5658C14.9689 12.6917 14.9961 12.8222 15.0683 12.9282C15.1405 13.0342 15.2518 13.1071 15.3777 13.1309C15.64 13.1809 15.8928 13.0087 15.9428 12.7463C16.1068 11.9285 16.5612 11.1978 17.2221 10.6893C17.8829 10.1805 18.7057 9.92843 19.5381 9.97912C20.3705 10.0298 21.1562 10.3803 21.7505 10.9656L22.5673 11.7775C22.7525 11.9616 23.0516 11.9616 23.2368 11.7775L24.0486 10.9656C24.9244 10.1056 26.1901 9.77442 27.3747 10.0954C28.5592 10.4163 29.4851 11.3409 29.807 12.525C30.129 13.7092 29.7991 14.9755 28.9401 15.852L22.9042 21.8826L22.1824 21.1608C22.0933 21.0711 21.9721 21.0204 21.8455 21.0204C21.7187 21.0204 21.5974 21.0711 21.5083 21.1608C21.3241 21.3463 21.3241 21.6455 21.5083 21.8306L22.572 22.8942C22.6604 22.982 22.7796 23.0314 22.9042 23.032C23.0307 23.0327 23.152 22.983 23.2414 22.8942L29.6142 16.5215C30.4376 15.6947 30.8997 14.5754 30.8997 13.4088C30.8997 12.2418 30.4376 11.1229 29.6142 10.2961L29.6142 10.2962Z" fill="white"/>
</svg>
