<svg width="31" height="40" viewBox="0 0 31 40" fill="none" xmlns="http://www.w3.org/2000/svg">
<rect width="31" height="39.7647" rx="12" fill="#8FDEFF"/>
<path d="M6.765 7.99682H8.41471C8.41471 7.64063 8.58683 7.31168 8.86596 7.1335C9.14524 6.9555 9.48929 6.9555 9.76842 7.1335C10.0477 7.31169 10.2197 7.64065 10.2197 7.99682H14.2915C14.2915 7.64063 14.4636 7.31168 14.7428 7.1335C15.022 6.9555 15.3661 6.9555 15.6452 7.1335C15.9245 7.31169 16.0965 7.64065 16.0965 7.99682H17.768C18.0028 7.9913 18.231 8.08333 18.4073 8.25457C18.5837 8.42581 18.6957 8.66398 18.7209 8.92193C18.7368 9.19713 18.6495 9.46753 18.4795 9.66973C18.3094 9.87176 18.0717 9.98782 17.8221 9.99049H16.0894C16.0894 10.3467 15.9173 10.6756 15.6381 10.8538C15.3589 11.0318 15.0148 11.0318 14.7357 10.8538C14.4564 10.6756 14.2844 10.3467 14.2844 9.99049H10.2089C10.2089 10.3467 10.0369 10.6756 9.75761 10.8538C9.47833 11.0318 9.13445 11.0318 8.85515 10.8538C8.57588 10.6756 8.4039 10.3467 8.4039 9.99049H6.75419C6.50022 9.98943 6.25657 10.1012 6.07798 10.3006C5.89942 10.5001 5.80096 10.7707 5.80482 11.0511V13.4235H24.5759V11.0511C24.5798 10.7686 24.4801 10.4962 24.2991 10.2963C24.1181 10.0964 23.8716 9.98626 23.6158 9.99053H21.9661C21.9661 10.3467 21.794 10.6757 21.5148 10.8538C21.2356 11.0318 20.8915 11.0318 20.6124 10.8538C20.3331 10.6757 20.1611 10.3467 20.1611 9.99053V8.04868V8.01272V8.0129C20.1611 7.65671 20.3331 7.32758 20.6124 7.14959C20.8915 6.97158 21.2356 6.97158 21.5148 7.14959C21.794 7.32759 21.9661 7.65673 21.9661 8.0129H23.6158C24.3478 8.00863 25.0512 8.3269 25.5701 8.89704C26.089 9.46739 26.3809 10.2426 26.3809 11.0511V29.0141C26.3809 29.82 26.0911 30.5929 25.5753 31.1626C25.0594 31.7324 24.3597 32.0525 23.6302 32.0525H6.76504C6.03309 32.0568 5.32965 31.7385 4.81074 31.1683C4.29184 30.598 3.99999 29.8228 3.99999 29.0141V18.0091C3.99999 17.6531 4.17194 17.324 4.45124 17.146C4.73052 16.9678 5.0744 16.9678 5.3537 17.146C5.63298 17.324 5.80495 17.6531 5.80495 18.0091V29.0141C5.80495 29.2913 5.90454 29.5571 6.08197 29.7529C6.2594 29.9489 6.49985 30.0589 6.75076 30.0589H23.6159C23.8692 30.0631 24.1134 29.9549 24.294 29.7586C24.4745 29.5622 24.5761 29.2942 24.5761 29.0141V15.4171H5.25625C4.92443 15.4214 4.60487 15.2788 4.36893 15.0211C4.13284 14.7635 4.00005 14.4121 4.00005 14.0456V11.051C3.99618 10.2396 4.28625 9.46035 4.80564 8.88663C5.32502 8.31291 6.03055 7.99251 6.76509 7.9968L6.765 7.99682Z" fill="white"/>
<path d="M20.4753 18.8902C20.782 18.8892 21.0766 19.0228 21.294 19.2621C21.5114 19.5011 21.6337 19.826 21.634 20.1648C21.6343 20.5037 21.5127 20.8287 21.2958 21.0683C21.0787 21.3079 20.7844 21.4425 20.4777 21.4421C20.1709 21.4418 19.8768 21.3067 19.6604 21.0665C19.444 20.8264 19.3228 20.501 19.3238 20.1621C19.3238 19.8248 19.4451 19.5013 19.661 19.2628C19.877 19.0243 20.1698 18.8902 20.4753 18.8902L20.4753 18.8902Z" fill="white"/>
<path d="M15.1906 18.8902C15.4974 18.8892 15.7918 19.0228 16.0093 19.2621C16.2267 19.5011 16.349 19.826 16.3493 20.1648C16.3496 20.5037 16.2279 20.8287 16.011 21.0683C15.7941 21.3079 15.4998 21.4425 15.193 21.4421C14.8862 21.4418 14.5923 21.3067 14.3757 21.0665C14.1593 20.8264 14.0381 20.501 14.039 20.1621C14.039 19.8248 14.1604 19.5013 14.3763 19.2628C14.5923 19.0243 14.8852 18.8902 15.1906 18.8902L15.1906 18.8902Z" fill="white"/>
<path d="M9.90571 18.8902C10.2125 18.8892 10.5071 19.0228 10.7245 19.2621C10.9419 19.5011 11.0643 19.826 11.0646 20.1648C11.0649 20.5037 10.9431 20.8287 10.7262 21.0683C10.5092 21.3079 10.215 21.4425 9.90815 21.4421C9.60147 21.4418 9.30739 21.3067 9.09092 21.0665C8.87433 20.8264 8.75331 20.501 8.75427 20.1621C8.75427 19.8248 8.87562 19.5013 9.09157 19.2628C9.30751 19.0243 9.60032 18.8902 9.90569 18.8902L9.90571 18.8902Z" fill="white"/>
<path d="M20.4754 24.0377C20.7808 24.0377 21.0736 24.1718 21.2895 24.4103C21.5055 24.6488 21.6268 24.9724 21.6268 25.3098C21.6268 25.6471 21.5055 25.9705 21.2895 26.2092C21.0736 26.4477 20.7808 26.5816 20.4754 26.5816C20.1698 26.5816 19.877 26.4477 19.6611 26.2092C19.4451 25.9705 19.3238 25.6471 19.3238 25.3098C19.3238 24.9724 19.4451 24.6488 19.6611 24.4103C19.877 24.1718 20.1698 24.0377 20.4754 24.0377Z" fill="white"/>
<path d="M15.1906 24.0377C15.496 24.0377 15.789 24.1718 16.0049 24.4103C16.2208 24.6488 16.3422 24.9724 16.3422 25.3098C16.3422 25.6471 16.2209 25.9705 16.0049 26.2092C15.789 26.4477 15.496 26.5816 15.1906 26.5816C14.8852 26.5816 14.5922 26.4477 14.3763 26.2092C14.1604 25.9705 14.039 25.6471 14.039 25.3098C14.039 24.9724 14.1604 24.6488 14.3763 24.4103C14.5923 24.1718 14.8852 24.0377 15.1906 24.0377Z" fill="white"/>
<path d="M9.90578 24.0377C10.2113 24.0377 10.5041 24.1718 10.7201 24.4103C10.936 24.6488 11.0574 24.9724 11.0574 25.3098C11.0574 25.6471 10.936 25.9705 10.7201 26.2092C10.5041 26.4477 10.2113 26.5816 9.90578 26.5816C9.60039 26.5816 9.30757 26.4477 9.09164 26.2092C8.8757 25.9705 8.75435 25.6471 8.75435 25.3098C8.75435 24.9724 8.8757 24.6488 9.09164 24.4103C9.30759 24.1718 9.6004 24.0377 9.90578 24.0377Z" fill="white"/>
</svg>
