<svg width="30" height="31" viewBox="0 0 30 31" fill="none" xmlns="http://www.w3.org/2000/svg">
<rect y="0.254898" width="30" height="30" rx="11" fill="#0560CB"/>
<path d="M12.9075 8.99998H10.4328C10.1997 8.99998 10 9.19661 10 9.45109V19.5489C10 19.7918 10.1886 20 10.4328 20H12.8964C13.1295 20 13.3292 19.8034 13.3292 19.5489V9.45109C13.3292 9.19662 13.1406 8.99998 12.9075 8.99998H12.9075Z" fill="white"/>
<path d="M18.5782 8.99998H16.1035C15.8704 8.99998 15.6707 9.19661 15.6707 9.45109V19.5489C15.6707 19.7918 15.8594 20 16.1035 20H18.5672C18.8002 20 19 19.8034 19 19.5489V9.45109C19 9.19662 18.8113 8.99998 18.5782 8.99998H18.5782Z" fill="white"/>
</svg>
