<svg width="36" height="36" viewBox="0 0 36 36" fill="none" xmlns="http://www.w3.org/2000/svg">
<circle cx="18" cy="18" r="18" fill="#0560CB"/>
<path d="M10.4897 24.9196C10.3938 24.9988 10.3248 25.1057 10.2919 25.2256C10.259 25.3455 10.2639 25.4728 10.3058 25.5899C10.3512 25.7098 10.4317 25.8133 10.537 25.8864C10.6423 25.9597 10.7674 25.9993 10.8957 26H10.9951C12.0268 26 13.5596 25.7758 14.6801 25.1395H14.68C16.1509 25.6443 17.7259 25.7671 19.2572 25.4968C23.5954 24.7378 26.7814 20.8838 26.5046 16.7037C26.4297 15.5739 26.116 14.4729 25.5844 13.4733C25.0526 12.4736 24.315 11.5982 23.4199 10.9047C22.4271 10.1315 21.2836 9.57446 20.0629 9.26934C18.8421 8.96422 17.571 8.91776 16.3312 9.13292C11.9571 9.86439 8.74355 13.7271 9.01613 17.9237C9.08426 18.9826 9.36239 20.0171 9.83416 20.9674C10.3061 21.9176 10.9623 22.7646 11.7646 23.4587C11.4254 24.0142 10.9944 24.5083 10.4897 24.9196L10.4897 24.9196ZM12.2297 23.5285C12.2846 23.4391 12.2657 23.3231 12.1853 23.2558C11.386 22.5975 10.7298 21.7826 10.2571 20.8613C9.78446 19.94 9.50531 18.9316 9.43686 17.8984C9.17893 13.9068 12.2381 10.2473 16.4008 9.54967C17.5841 9.34379 18.7974 9.38774 19.9626 9.67915C21.1278 9.97041 22.2191 10.5025 23.1661 11.241C24.015 11.8982 24.7146 12.728 25.219 13.6755C25.7235 14.623 26.0211 15.6668 26.0922 16.7379C26.3564 20.6979 23.3226 24.3637 19.1894 25.0848V25.0846C17.6974 25.3483 16.1625 25.22 14.7349 24.7126C14.6754 24.691 14.6095 24.6972 14.5553 24.7295C13.4707 25.3785 11.9146 25.5941 10.9125 25.5751C10.8257 25.5764 10.7468 25.5244 10.7137 25.444C10.6837 25.3679 10.7089 25.2809 10.7751 25.2327C11.3576 24.7559 11.8502 24.1787 12.2296 23.5286L12.2297 23.5285Z" fill="white"/>
<path d="M17.7734 19.0063C18.2024 19.0063 18.6137 18.836 18.917 18.5326C19.2204 18.2293 19.3907 17.818 19.3907 17.389C19.3907 16.9601 19.2204 16.5487 18.917 16.2453C18.6137 15.9421 18.2024 15.7716 17.7734 15.7716C17.3444 15.7716 16.9331 15.9421 16.6297 16.2453C16.3264 16.5487 16.156 16.9601 16.156 17.389C16.1566 17.8178 16.3271 18.2288 16.6303 18.532C16.9335 18.8352 17.3447 19.0057 17.7733 19.0063L17.7734 19.0063ZM17.7734 16.1945C18.0902 16.1945 18.394 16.3204 18.618 16.5444C18.842 16.7684 18.9679 17.0722 18.9679 17.389C18.9679 17.7058 18.842 18.0097 18.618 18.2337C18.3939 18.4577 18.0902 18.5835 17.7734 18.5835C17.4566 18.5835 17.1528 18.4577 16.9288 18.2337C16.7048 18.0097 16.5789 17.7058 16.5789 17.389C16.5794 17.0724 16.7055 16.7689 16.9294 16.545C17.1533 16.3212 17.4568 16.1951 17.7734 16.1945L17.7734 16.1945Z" fill="white"/>
<path d="M14.9487 17.389C14.9487 16.9601 14.7784 16.5487 14.475 16.2453C14.1717 15.9421 13.7604 15.7716 13.3314 15.7716C12.9024 15.7716 12.4911 15.9421 12.1877 16.2453C11.8844 16.5487 11.714 16.9601 11.714 17.389C11.714 17.818 11.8844 18.2293 12.1877 18.5326C12.4911 18.836 12.9024 19.0063 13.3314 19.0063C13.7602 19.0057 14.1712 18.8353 14.4744 18.5321C14.7776 18.2289 14.9481 17.8179 14.9487 17.389L14.9487 17.389ZM12.1369 17.389C12.1369 17.0722 12.2628 16.7684 12.4868 16.5444C12.7108 16.3204 13.0146 16.1945 13.3314 16.1945C13.6482 16.1945 13.9521 16.3204 14.1761 16.5444C14.4001 16.7684 14.5259 17.0722 14.5259 17.389C14.5259 17.7058 14.4001 18.0097 14.1761 18.2337C13.9521 18.4577 13.6482 18.5835 13.3314 18.5835C13.0152 18.5823 12.7122 18.4561 12.4887 18.2322C12.2653 18.0085 12.1395 17.7053 12.1391 17.389L12.1369 17.389Z" fill="white"/>
<path d="M22.1177 19.0063C22.5471 19.0085 22.9599 18.84 23.2649 18.5377C23.5698 18.2353 23.7421 17.8242 23.7436 17.3948C23.745 16.9653 23.5757 16.5528 23.2728 16.2485C22.9699 15.9439 22.5585 15.7724 22.129 15.7717C21.6996 15.7709 21.2875 15.941 20.9836 16.2445C20.6796 16.5478 20.5089 16.9595 20.5089 17.389C20.5095 17.8163 20.6788 18.226 20.9802 18.5291C21.2815 18.832 21.6904 19.0035 22.1177 19.0063ZM22.1177 16.1945C22.435 16.1923 22.7401 16.3163 22.9658 16.5394C23.1916 16.7624 23.3191 17.066 23.3207 17.3834C23.3222 17.7006 23.1975 18.0054 22.9739 18.2306C22.7503 18.4558 22.4464 18.5828 22.129 18.5835C21.8118 18.5842 21.5071 18.4587 21.2825 18.2346C21.0579 18.0106 20.9317 17.7063 20.9317 17.389C20.9323 17.0738 21.057 16.7716 21.2791 16.548C21.5012 16.3242 21.8025 16.1973 22.1177 16.1945L22.1177 16.1945Z" fill="white"/>
</svg>
