<svg width="144" height="144" xmlns="http://www.w3.org/2000/svg" fill="none">
 <g id="Layer_1">
  <title>Layer 1</title>
  <g id="svg_3">
   <g>
    <circle fill="#CFDCEA" r="72" cy="72" cx="72"/>
   </g>
   <g>
    <circle fill-opacity="0.66" fill="#E9D8FF" r="57" cy="72" cx="72"/>
   </g>
   <g>
    <path fill-opacity="0.66" fill="url(#svg_1)" d="m92.93441,127.63674c-10.9779,4.752 -23.1407,6.054 -34.8756,3.734c-11.7349,-2.32 -22.4876,-8.151 -30.8321,-16.722c-8.34457,-8.5709 -13.88684,-19.4756 -15.89193,-31.2683c-2.00509,-11.7927 -0.37827,-23.9164 4.66474,-34.7633l5.62129,2.6134c-4.51316,9.7073 -5.96905,20.5571 -4.17463,31.1108c1.79442,10.5537 6.75433,20.3126 14.22213,27.9828c7.4678,7.6706 17.0907,12.8896 27.5926,14.9656c10.5019,2.076 21.3868,0.91 31.2112,-3.342l2.4623,5.689z"/>
    <circle fill="white" transform="rotate(9.29977, 92.3321, 124.882)" r="5.5" cy="124.88174" cx="92.33211"/>
    <path fill-opacity="0.42" fill="white" d="m100.72031,126.25574c-0.7586,4.632 -5.1291,7.773 -9.7618,7.014c-4.6328,-0.758 -7.7733,-5.129 -7.0147,-9.762c0.7586,-4.632 5.1291,-7.773 9.7619,-7.014c4.6327,0.758 7.7733,5.129 7.0146,9.762z"/>
    <defs transform="translate(-328, -228) translate(2, -1.33333) translate(4, -6.66667) translate(-1.33333, 8) translate(-5, -4) translate(-16, 23) translate(354.833) translate(0, 223.491)">
     <linearGradient gradientTransform="matrix(1,0,0,1,11.833343505859375,10.166671752929688)" gradientUnits="userSpaceOnUse" y2="72.5" x2="121" y1="0" x1="57" id="svg_2">
      <stop stop-color="#00ACAF"/>
      <stop stop-color="#5500DA" offset="1"/>
     </linearGradient>
    </defs>
   </g>
   <g>
    <path fill-opacity="0.66" fill="url(#svg_2)" d="m59.62813,11.24048c9.5393,-1.84527 19.3866,-1.30613 28.6674,1.56954c9.2808,2.87566 17.7077,7.99885 24.5328,14.91445c6.824,6.9157 11.835,15.4097 14.588,24.7278c2.752,9.318 3.161,19.1717 1.19,28.6856l-5.732,-1.1877c1.776,-8.57 1.408,-17.446 -1.072,-25.8396c-2.479,-8.3936 -6.993,-16.0449 -13.1408,-22.2745c-6.1476,-6.2295 -13.7385,-10.8444 -22.0985,-13.43476c-8.36,-2.59036 -17.2304,-3.07602 -25.8232,-1.41382l-1.1117,-5.74701z"/>
    <circle fill="white" r="4.5" cy="78.66667" cx="126.33333"/>
    <circle fill="#698FD4" r="5" cy="15.16667" cx="60.83333"/>
    <circle fill="white" r="3" cy="15.16667" cx="60.83333"/>

   </g>
  </g>
 </g>
 <defs>
  <linearGradient gradientTransform="matrix(1,0,0,1,10.5,14.490737915039062)" gradientUnits="userSpaceOnUse" y2="127.5" x2="107.5" y1="59" x1="-6.5" id="svg_1">
   <stop stop-color="#00C6CA"/>
   <stop stop-color="#5700DF" offset="1"/>
  </linearGradient>
 </defs>
</svg>