<svg width="36" height="36" viewBox="0 0 36 36" fill="none" xmlns="http://www.w3.org/2000/svg">
<circle cx="18" cy="18" r="18" fill="#40E6DA"/>
<path d="M28.7178 15.6633C27.8389 14.4914 26.4085 13.3361 24.6138 12.4614C22.8193 11.5884 20.6587 11.0002 18.327 11C15.2178 11.0011 12.4143 12.0442 10.3743 13.4199C9.35354 14.109 8.52259 14.8812 7.93645 15.6632C7.353 16.4457 7.00323 17.2397 7 18C7.00053 18.3547 7.09286 18.7207 7.25355 19.0936C7.53604 19.7459 8.03123 20.4263 8.69582 21.0953C9.69331 22.0973 11.0775 23.0683 12.7249 23.7945C14.3723 24.5204 16.2837 24.9998 18.3272 25C21.4364 24.9989 24.2399 23.9558 26.2799 22.5801C27.3007 21.8914 28.1316 21.119 28.7178 20.3368C29.3012 19.5543 29.651 18.7605 29.6542 17.9998C29.651 17.2397 29.3012 16.4457 28.7178 15.6634L28.7178 15.6633ZM28.1067 19.8792C27.3242 20.9266 25.979 22.0266 24.2797 22.852C22.5803 23.6792 20.5291 24.2366 18.327 24.2362C15.3969 24.2375 12.7283 23.1835 10.8043 21.8541C9.84281 21.1906 9.06881 20.458 8.5454 19.7695C8.28351 19.4255 8.08445 19.0932 7.95432 18.7908C7.82328 18.4884 7.76273 18.2178 7.76327 18C7.75989 17.4876 8.02285 16.8178 8.54717 16.1209C9.32967 15.0735 10.6748 13.9735 12.3742 13.1479C14.0736 12.3207 16.1247 11.7633 18.3269 11.7637C21.2626 11.7626 23.9324 12.7559 25.8528 14.0527C26.813 14.7003 27.5847 15.4234 28.1065 16.1209C28.6312 16.8178 28.8938 17.4875 28.8904 18C28.8938 18.5124 28.6308 19.1822 28.1065 19.8792L28.1067 19.8792Z" fill="white"/>
<path d="M18.327 13.291C15.7259 13.2914 13.6183 15.399 13.6179 18.0001C13.6181 20.6012 15.726 22.7087 18.327 22.7092C20.928 22.709 23.0356 20.6011 23.036 18.0001C23.0357 15.3989 20.9279 13.2915 18.327 13.291ZM21.1167 20.7901C20.4015 21.505 19.4177 21.9455 18.327 21.9458C17.2362 21.9457 16.2524 21.505 15.5372 20.7901C14.8223 20.0749 14.3818 19.0907 14.3815 18.0003C14.3817 16.9096 14.8223 15.9256 15.5372 15.2106C16.2524 14.4957 17.2362 14.0552 18.327 14.0549C19.4177 14.055 20.4015 14.4957 21.1167 15.2106C21.8316 15.9256 22.2721 16.9094 22.2725 18.0003C22.2721 19.0909 21.8316 20.0749 21.1167 20.7901Z" fill="white"/>
<path d="M18.327 16.091C17.2721 16.0912 16.4181 16.9453 16.4179 18.0001C16.4181 19.055 17.2721 19.909 18.327 19.9092C19.3818 19.909 20.2359 19.055 20.236 18.0001C20.2359 16.9453 19.3818 16.0912 18.327 16.091ZM19.1371 18.8103C18.9285 19.018 18.6446 19.1453 18.327 19.1455C18.0093 19.1453 17.7254 19.018 17.5168 18.8103C17.309 18.6017 17.1817 18.3178 17.1816 18.0001C17.1817 17.6825 17.309 17.3986 17.5168 17.1899C17.7252 16.9822 18.0093 16.8549 18.327 16.8547C18.6446 16.8549 18.9285 16.9822 19.1371 17.1899C19.3449 17.3984 19.4722 17.6825 19.4724 18.0001C19.4722 18.3178 19.3449 18.6017 19.1371 18.8103Z" fill="white"/>
</svg>
