<svg width="118" height="121" viewBox="0 0 118 121" fill="none" xmlns="http://www.w3.org/2000/svg">
<path d="M82.4344 113.146C71.4565 117.898 59.2937 119.2 47.5588 116.88C35.8239 114.56 25.0712 108.729 16.7267 100.158C8.38213 91.5871 2.83986 80.6824 0.834771 68.8897C-1.17032 57.097 0.456501 44.9733 5.49951 34.1264L11.1208 36.7398C6.60764 46.4471 5.15175 57.2969 6.94617 67.8506C8.74059 78.4043 13.7005 88.1632 21.1683 95.8334C28.6361 103.504 38.259 108.723 48.7609 110.799C59.2628 112.875 70.1477 111.709 79.9721 107.457L82.4344 113.146Z" fill="url(#paint0_linear_2_208)" fill-opacity="0.66"/>
<circle cx="81.8321" cy="110.391" r="5.5" transform="rotate(9.29977 81.8321 110.391)" fill="white"/>
<path d="M90.2203 111.765C89.4617 116.397 85.0912 119.538 80.4585 118.779C75.8257 118.021 72.6852 113.65 73.4438 109.017C74.2024 104.385 78.5729 101.244 83.2057 102.003C87.8384 102.761 90.979 107.132 90.2203 111.765Z" fill="white" fill-opacity="0.42"/>
<defs>
<linearGradient id="paint0_linear_2_208" x1="-6.5" y1="59" x2="107.5" y2="127.5" gradientUnits="userSpaceOnUse">
<stop stop-color="#00C6CA"/>
<stop offset="1" stop-color="#5700DF"/>
</linearGradient>
</defs>
</svg>
