<svg width="144" height="144" viewBox="0 0 144 144" fill="none" xmlns="http://www.w3.org/2000/svg">
<circle cx="72" cy="72" r="72" fill="#CFDCEA"/>
<circle cx="71" cy="72" r="57" fill="#E9D8FF" fill-opacity="0.66"/>
<path d="M58.7948 13.0738C68.3341 11.2285 78.1814 11.7677 87.4622 14.6433C96.743 17.519 105.17 22.6422 111.995 29.5578C118.819 36.4735 123.83 44.9675 126.583 54.2856C129.335 63.6036 129.744 73.4573 127.773 82.9712L122.041 81.7835C123.817 73.2135 123.449 64.3375 120.969 55.9439C118.49 47.5503 113.976 39.899 107.828 33.6694C101.681 27.4399 94.0897 22.825 85.7297 20.2346C77.3697 17.6443 68.4993 17.1586 59.9065 18.8208L58.7948 13.0738Z" fill="url(#paint0_linear_2_197)" fill-opacity="0.66"/>
<circle cx="125.5" cy="80.5" r="4.5" fill="white"/>
<circle cx="60" cy="17" r="5" fill="#698FD4"/>
<circle cx="60" cy="17" r="3" fill="white"/>
<path d="M93.4344 125.146C82.4565 129.898 70.2937 131.2 58.5588 128.88C46.8239 126.56 36.0712 120.729 27.7267 112.158C19.3821 103.587 13.8399 92.6824 11.8348 80.8897C9.82968 69.097 11.4565 56.9733 16.4995 46.1264L22.1208 48.7398C17.6076 58.4471 16.1518 69.2969 17.9462 79.8506C19.7406 90.4043 24.7005 100.163 32.1683 107.833C39.6361 115.504 49.259 120.723 59.7609 122.799C70.2628 124.875 81.1477 123.709 90.9721 119.457L93.4344 125.146Z" fill="url(#paint1_linear_2_197)" fill-opacity="0.66"/>
<circle cx="92.8321" cy="122.391" r="5.5" transform="rotate(9.29977 92.8321 122.391)" fill="white"/>
<path d="M101.22 123.765C100.462 128.397 96.0912 131.538 91.4585 130.779C86.8257 130.021 83.6852 125.65 84.4438 121.017C85.2024 116.385 89.5729 113.244 94.2057 114.003C98.8384 114.761 101.979 119.132 101.22 123.765Z" fill="white" fill-opacity="0.42"/>
<path d="M47.044 62.118C47.116 61.002 47.542 60.132 48.322 59.508C49.114 58.884 50.122 58.572 51.346 58.572C52.186 58.572 52.912 58.722 53.524 59.022C54.136 59.322 54.598 59.73 54.91 60.246C55.222 60.762 55.378 61.344 55.378 61.992C55.378 62.736 55.18 63.372 54.784 63.9C54.388 64.428 53.914 64.782 53.362 64.962V65.034C54.07 65.25 54.622 65.646 55.018 66.222C55.414 66.786 55.612 67.512 55.612 68.4C55.612 69.108 55.45 69.738 55.126 70.29C54.802 70.842 54.322 71.28 53.686 71.604C53.05 71.916 52.288 72.072 51.4 72.072C50.104 72.072 49.036 71.742 48.196 71.082C47.368 70.41 46.924 69.45 46.864 68.202H48.844C48.892 68.838 49.138 69.36 49.582 69.768C50.026 70.164 50.626 70.362 51.382 70.362C52.114 70.362 52.678 70.164 53.074 69.768C53.47 69.36 53.668 68.838 53.668 68.202C53.668 67.362 53.398 66.768 52.858 66.42C52.33 66.06 51.514 65.88 50.41 65.88H49.942V64.188H50.428C51.4 64.176 52.138 64.014 52.642 63.702C53.158 63.39 53.416 62.898 53.416 62.226C53.416 61.65 53.23 61.194 52.858 60.858C52.486 60.51 51.958 60.336 51.274 60.336C50.602 60.336 50.08 60.51 49.708 60.858C49.336 61.194 49.114 61.614 49.042 62.118H47.044ZM57.7675 65.268C57.7675 63.192 58.1155 61.572 58.8115 60.408C59.5195 59.232 60.7315 58.644 62.4475 58.644C64.1635 58.644 65.3695 59.232 66.0655 60.408C66.7735 61.572 67.1275 63.192 67.1275 65.268C67.1275 67.368 66.7735 69.012 66.0655 70.2C65.3695 71.376 64.1635 71.964 62.4475 71.964C60.7315 71.964 59.5195 71.376 58.8115 70.2C58.1155 69.012 57.7675 67.368 57.7675 65.268ZM65.1115 65.268C65.1115 64.296 65.0455 63.474 64.9135 62.802C64.7935 62.13 64.5415 61.584 64.1575 61.164C63.7735 60.732 63.2035 60.516 62.4475 60.516C61.6915 60.516 61.1215 60.732 60.7375 61.164C60.3535 61.584 60.0955 62.13 59.9635 62.802C59.8435 63.474 59.7835 64.296 59.7835 65.268C59.7835 66.276 59.8435 67.122 59.9635 67.806C60.0835 68.49 60.3355 69.042 60.7195 69.462C61.1155 69.882 61.6915 70.092 62.4475 70.092C63.2035 70.092 63.7735 69.882 64.1575 69.462C64.5535 69.042 64.8115 68.49 64.9315 67.806C65.0515 67.122 65.1115 66.276 65.1115 65.268ZM69.2988 65.268C69.2988 63.192 69.6468 61.572 70.3428 60.408C71.0508 59.232 72.2628 58.644 73.9788 58.644C75.6948 58.644 76.9008 59.232 77.5968 60.408C78.3048 61.572 78.6588 63.192 78.6588 65.268C78.6588 67.368 78.3048 69.012 77.5968 70.2C76.9008 71.376 75.6948 71.964 73.9788 71.964C72.2628 71.964 71.0508 71.376 70.3428 70.2C69.6468 69.012 69.2988 67.368 69.2988 65.268ZM76.6428 65.268C76.6428 64.296 76.5768 63.474 76.4448 62.802C76.3248 62.13 76.0728 61.584 75.6888 61.164C75.3048 60.732 74.7348 60.516 73.9788 60.516C73.2228 60.516 72.6528 60.732 72.2688 61.164C71.8848 61.584 71.6268 62.13 71.4948 62.802C71.3748 63.474 71.3148 64.296 71.3148 65.268C71.3148 66.276 71.3748 67.122 71.4948 67.806C71.6148 68.49 71.8668 69.042 72.2508 69.462C72.6468 69.882 73.2228 70.092 73.9788 70.092C74.7348 70.092 75.3048 69.882 75.6888 69.462C76.0848 69.042 76.3428 68.49 76.4628 67.806C76.5828 67.122 76.6428 66.276 76.6428 65.268ZM87.994 72L83.152 66.402V72H81.1V59.49H83.152V65.196L88.012 59.49H90.586L85.15 65.754L90.676 72H87.994ZM50.554 79.727V80.393H48.844V86H48.025V80.393H46.306V79.727H50.554ZM53.7131 86.081C53.2511 86.081 52.8311 85.976 52.4531 85.766C52.0811 85.556 51.7871 85.259 51.5711 84.875C51.3611 84.485 51.2561 84.035 51.2561 83.525C51.2561 83.021 51.3641 82.577 51.5801 82.193C51.8021 81.803 52.1021 81.506 52.4801 81.302C52.8581 81.092 53.2811 80.987 53.7491 80.987C54.2171 80.987 54.6401 81.092 55.0181 81.302C55.3961 81.506 55.6931 81.8 55.9091 82.184C56.1311 82.568 56.2421 83.015 56.2421 83.525C56.2421 84.035 56.1281 84.485 55.9001 84.875C55.6781 85.259 55.3751 85.556 54.9911 85.766C54.6071 85.976 54.1811 86.081 53.7131 86.081ZM53.7131 85.361C54.0071 85.361 54.2831 85.292 54.5411 85.154C54.7991 85.016 55.0061 84.809 55.1621 84.533C55.3241 84.257 55.4051 83.921 55.4051 83.525C55.4051 83.129 55.3271 82.793 55.1711 82.517C55.0151 82.241 54.8111 82.037 54.5591 81.905C54.3071 81.767 54.0341 81.698 53.7401 81.698C53.4401 81.698 53.1641 81.767 52.9121 81.905C52.6661 82.037 52.4681 82.241 52.3181 82.517C52.1681 82.793 52.0931 83.129 52.0931 83.525C52.0931 83.927 52.1651 84.266 52.3091 84.542C52.4591 84.818 52.6571 85.025 52.9031 85.163C53.1491 85.295 53.4191 85.361 53.7131 85.361ZM58.318 81.743V84.65C58.318 84.89 58.369 85.061 58.471 85.163C58.573 85.259 58.75 85.307 59.002 85.307H59.605V86H58.867C58.411 86 58.069 85.895 57.841 85.685C57.613 85.475 57.499 85.13 57.499 84.65V81.743H56.86V81.068H57.499V79.826H58.318V81.068H59.605V81.743H58.318ZM60.2913 83.516C60.2913 83.012 60.3933 82.571 60.5973 82.193C60.8013 81.809 61.0803 81.512 61.4343 81.302C61.7943 81.092 62.1933 80.987 62.6313 80.987C63.0633 80.987 63.4383 81.08 63.7563 81.266C64.0743 81.452 64.3113 81.686 64.4673 81.968V81.068H65.2953V86H64.4673V85.082C64.3053 85.37 64.0623 85.61 63.7383 85.802C63.4203 85.988 63.0483 86.081 62.6223 86.081C62.1843 86.081 61.7883 85.973 61.4343 85.757C61.0803 85.541 60.8013 85.238 60.5973 84.848C60.3933 84.458 60.2913 84.014 60.2913 83.516ZM64.4673 83.525C64.4673 83.153 64.3923 82.829 64.2423 82.553C64.0923 82.277 63.8883 82.067 63.6303 81.923C63.3783 81.773 63.0993 81.698 62.7933 81.698C62.4873 81.698 62.2083 81.77 61.9563 81.914C61.7043 82.058 61.5033 82.268 61.3533 82.544C61.2033 82.82 61.1283 83.144 61.1283 83.516C61.1283 83.894 61.2033 84.224 61.3533 84.506C61.5033 84.782 61.7043 84.995 61.9563 85.145C62.2083 85.289 62.4873 85.361 62.7933 85.361C63.0993 85.361 63.3783 85.289 63.6303 85.145C63.8883 84.995 64.0923 84.782 64.2423 84.506C64.3923 84.224 64.4673 83.897 64.4673 83.525ZM67.4983 79.34V86H66.6793V79.34H67.4983ZM72.1126 80.393V82.49H74.3986V83.165H72.1126V85.325H74.6686V86H71.2936V79.718H74.6686V80.393H72.1126ZM77.7438 85.244L79.2738 81.068H80.1468L78.2118 86H77.2578L75.3228 81.068H76.2048L77.7438 85.244ZM85.4528 83.345C85.4528 83.501 85.4438 83.666 85.4258 83.84H81.4838C81.5138 84.326 81.6788 84.707 81.9788 84.983C82.2848 85.253 82.6538 85.388 83.0858 85.388C83.4398 85.388 83.7338 85.307 83.9678 85.145C84.2078 84.977 84.3758 84.755 84.4718 84.479H85.3538C85.2218 84.953 84.9578 85.34 84.5618 85.64C84.1658 85.934 83.6738 86.081 83.0858 86.081C82.6178 86.081 82.1978 85.976 81.8258 85.766C81.4598 85.556 81.1718 85.259 80.9618 84.875C80.7518 84.485 80.6468 84.035 80.6468 83.525C80.6468 83.015 80.7488 82.568 80.9528 82.184C81.1568 81.8 81.4418 81.506 81.8078 81.302C82.1798 81.092 82.6058 80.987 83.0858 80.987C83.5538 80.987 83.9678 81.089 84.3278 81.293C84.6878 81.497 84.9638 81.779 85.1558 82.139C85.3538 82.493 85.4528 82.895 85.4528 83.345ZM84.6068 83.174C84.6068 82.862 84.5378 82.595 84.3998 82.373C84.2618 82.145 84.0728 81.974 83.8328 81.86C83.5988 81.74 83.3378 81.68 83.0498 81.68C82.6358 81.68 82.2818 81.812 81.9878 82.076C81.6998 82.34 81.5348 82.706 81.4928 83.174H84.6068ZM88.9368 80.978C89.5368 80.978 90.0228 81.161 90.3948 81.527C90.7668 81.887 90.9528 82.409 90.9528 83.093V86H90.1428V83.21C90.1428 82.718 90.0198 82.343 89.7738 82.085C89.5278 81.821 89.1918 81.689 88.7658 81.689C88.3338 81.689 87.9888 81.824 87.7308 82.094C87.4788 82.364 87.3528 82.757 87.3528 83.273V86H86.5338V81.068H87.3528V81.77C87.5148 81.518 87.7338 81.323 88.0098 81.185C88.2918 81.047 88.6008 80.978 88.9368 80.978ZM93.2897 81.743V84.65C93.2897 84.89 93.3407 85.061 93.4427 85.163C93.5447 85.259 93.7217 85.307 93.9737 85.307H94.5767V86H93.8387C93.3827 86 93.0407 85.895 92.8127 85.685C92.5847 85.475 92.4707 85.13 92.4707 84.65V81.743H91.8317V81.068H92.4707V79.826H93.2897V81.068H94.5767V81.743H93.2897ZM97.315 86.081C96.937 86.081 96.598 86.018 96.298 85.892C95.998 85.76 95.761 85.58 95.587 85.352C95.413 85.118 95.317 84.851 95.299 84.551H96.145C96.169 84.797 96.283 84.998 96.487 85.154C96.697 85.31 96.97 85.388 97.306 85.388C97.618 85.388 97.864 85.319 98.044 85.181C98.224 85.043 98.314 84.869 98.314 84.659C98.314 84.443 98.218 84.284 98.026 84.182C97.834 84.074 97.537 83.969 97.135 83.867C96.769 83.771 96.469 83.675 96.235 83.579C96.007 83.477 95.809 83.33 95.641 83.138C95.479 82.94 95.398 82.682 95.398 82.364C95.398 82.112 95.473 81.881 95.623 81.671C95.773 81.461 95.986 81.296 96.262 81.176C96.538 81.05 96.853 80.987 97.207 80.987C97.753 80.987 98.194 81.125 98.53 81.401C98.866 81.677 99.046 82.055 99.07 82.535H98.251C98.233 82.277 98.128 82.07 97.936 81.914C97.75 81.758 97.498 81.68 97.18 81.68C96.886 81.68 96.652 81.743 96.478 81.869C96.304 81.995 96.217 82.16 96.217 82.364C96.217 82.526 96.268 82.661 96.37 82.769C96.478 82.871 96.61 82.955 96.766 83.021C96.928 83.081 97.15 83.15 97.432 83.228C97.786 83.324 98.074 83.42 98.296 83.516C98.518 83.606 98.707 83.744 98.863 83.93C99.025 84.116 99.109 84.359 99.115 84.659C99.115 84.929 99.04 85.172 98.89 85.388C98.74 85.604 98.527 85.775 98.251 85.901C97.981 86.021 97.669 86.081 97.315 86.081Z" fill="black"/>
<defs>
<linearGradient id="paint0_linear_2_197" x1="68" y1="12" x2="132" y2="84.5" gradientUnits="userSpaceOnUse">
<stop stop-color="#00ACAF"/>
<stop offset="1" stop-color="#5500DA"/>
</linearGradient>
<linearGradient id="paint1_linear_2_197" x1="4.5" y1="71" x2="118.5" y2="139.5" gradientUnits="userSpaceOnUse">
<stop stop-color="#00C6CA"/>
<stop offset="1" stop-color="#5700DF"/>
</linearGradient>
</defs>
</svg>
