<svg width="25" height="24" viewBox="0 0 25 24" fill="none" xmlns="http://www.w3.org/2000/svg">
<path d="M23.4 2.24525L17.1545 2.24528V0.750176C17.1545 0.335704 16.8055 0 16.3745 0C15.9436 0 15.5945 0.335704 15.5945 0.750176V2.2449H9.35454V0.750176C9.35454 0.335704 9.00549 0 8.57454 0C8.14359 0 7.79454 0.335704 7.79454 0.750176V2.2449H1.56C0.69849 2.2449 0 2.91668 0 3.74525V22.4996C0 23.3282 0.69849 24 1.56 24H23.4C24.2615 24 24.96 23.3282 24.96 22.4996V3.74525C24.96 2.91704 24.2615 2.24525 23.4 2.24525ZM23.4 22.4996H1.56V3.74525H7.79454V4.50105C7.79454 4.9155 8.14359 5.25123 8.57454 5.25123C9.00549 5.25123 9.35454 4.9155 9.35454 4.50105V3.74563H15.5945V4.50143C15.5945 4.9159 15.9436 5.25161 16.3745 5.25161C16.8055 5.25161 17.1545 4.9159 17.1545 4.50143V3.74563H23.4V22.4996ZM17.94 11.9975H19.5C19.9306 11.9975 20.28 11.6615 20.28 11.2474V9.74701C20.28 9.33291 19.9306 8.99683 19.5 8.99683H17.94C17.5094 8.99683 17.16 9.33291 17.16 9.74701V11.2474C17.16 11.6615 17.5094 11.9975 17.94 11.9975ZM17.94 17.9986H19.5C19.9306 17.9986 20.28 17.6629 20.28 17.2484V15.748C20.28 15.3339 19.9306 14.9979 19.5 14.9979H17.94C17.5094 14.9979 17.16 15.3339 17.16 15.748V17.2484C17.16 17.6632 17.5094 17.9986 17.94 17.9986ZM13.26 14.9979H11.7C11.2694 14.9979 10.92 15.3339 10.92 15.748V17.2484C10.92 17.6629 11.2694 17.9986 11.7 17.9986H13.26C13.6906 17.9986 14.04 17.6629 14.04 17.2484V15.748C14.04 15.3343 13.6906 14.9979 13.26 14.9979ZM13.26 8.99683H11.7C11.2694 8.99683 10.92 9.33291 10.92 9.74701V11.2474C10.92 11.6615 11.2694 11.9975 11.7 11.9975H13.26C13.6906 11.9975 14.04 11.6615 14.04 11.2474V9.74701C14.04 9.33254 13.6906 8.99683 13.26 8.99683ZM7.02 8.99683H5.46C5.02944 8.99683 4.68 9.33291 4.68 9.74701V11.2474C4.68 11.6615 5.02944 11.9975 5.46 11.9975H7.02C7.45056 11.9975 7.8 11.6615 7.8 11.2474V9.74701C7.8 9.33254 7.45056 8.99683 7.02 8.99683ZM7.02 14.9979H5.46C5.02944 14.9979 4.68 15.3339 4.68 15.748V17.2484C4.68 17.6629 5.02944 17.9986 5.46 17.9986H7.02C7.45056 17.9986 7.8 17.6629 7.8 17.2484V15.748C7.8 15.3343 7.45056 14.9979 7.02 14.9979Z" fill="#828282"/>
</svg>
