<svg width="24" height="24" xmlns="http://www.w3.org/2000/svg" fill="none">
 <g id="Layer_1">
  <title>Layer 1</title>
  <g id="svg_1">
   <g>
    <path fill="#828282" d="m2.99985,3.00007c0,-0.79566 0.31608,-1.55874 0.87869,-2.12136c0.56262,-0.56261 1.3257,-0.87869 2.12136,-0.87869l12.00015,0c0.7957,0 1.5588,0.31608 2.1214,0.87869c0.5626,0.56262 0.8787,1.3257 0.8787,2.12136l0,20.25035c-0.0001,0.1356 -0.0369,0.2687 -0.1067,0.3851c-0.0697,0.1164 -0.1697,0.2117 -0.2893,0.2757c-0.1196,0.064 -0.2543,0.0944 -0.3899,0.0879c-0.1355,-0.0064 -0.2667,-0.0496 -0.3796,-0.1247l-7.83465,-4.2226l-7.83463,4.2226c-0.11294,0.0751 -0.24416,0.1183 -0.37967,0.1247c-0.13551,0.0065 -0.27024,-0.0239 -0.38984,-0.0879c-0.11961,-0.064 -0.2196,-0.1593 -0.28934,-0.2757c-0.06973,-0.1164 -0.1066,-0.2495 -0.10667,-0.3851l0,-20.25035zm3.00005,-1.50003c-0.39783,0 -0.77937,0.15804 -1.06068,0.43935c-0.28131,0.28131 -0.43935,0.66285 -0.43935,1.06068l0,18.84935l7.08462,-3.7231c0.12309,-0.0819 0.26765,-0.1256 0.41551,-0.1256c0.14785,0 0.29241,0.0437 0.4155,0.1256l7.08465,3.7231l0,-18.84935c0,-0.39783 -0.1581,-0.77937 -0.4394,-1.06068c-0.2813,-0.28131 -0.6628,-0.43935 -1.0607,-0.43935l-12.00015,0z"/>
   </g>
   <g>
    <path fill="#828282" d="m8.43744,11.1875c0,-0.19892 0.07902,-0.38969 0.21968,-0.53034c0.14065,-0.14065 0.33142,-0.21967 0.53033,-0.21967l6.0001,0c0.19892,0 0.38969,0.07902 0.53034,0.21967c0.14065,0.14065 0.21967,0.33142 0.21967,0.53034c0,0.19892 -0.07902,0.38968 -0.21967,0.53034c-0.14065,0.14065 -0.33142,0.21967 -0.53034,0.21967l-6.0001,0c-0.19891,0 -0.38968,-0.07902 -0.53033,-0.21967c-0.14066,-0.14066 -0.21968,-0.33142 -0.21968,-0.53034z" clip-rule="evenodd" fill-rule="evenodd"/>
   </g>
  </g>
 </g>

</svg>