<svg width="24" height="24" xmlns="http://www.w3.org/2000/svg" fill="none">
 <g id="Layer_1">
  <title>Layer 1</title>
  <g id="svg_1">
   <g>
    <path fill="#828282" d="m22.2857,0l-20.57141,0c-0.45452,0.00045 -0.89029,0.18121 -1.21169,0.5026c-0.32139,0.3214 -0.50215,0.75717 -0.5026,1.21169l0,20.57141c0.00045,0.4545 0.18121,0.8903 0.5026,1.2117c0.3214,0.3214 0.75717,0.5021 1.21169,0.5026l20.57141,0c0.4545,-0.0007 0.8901,-0.1815 1.2114,-0.5029c0.3214,-0.3213 0.5022,-0.7569 0.5029,-1.2114l0,-20.57141c-0.0005,-0.45452 -0.1812,-0.89029 -0.5026,-1.21169c-0.3214,-0.32139 -0.7572,-0.50215 -1.2117,-0.5026zm0,7.71429l-12,0l0,-6l12,0l0,6zm-13.71427,-6l0,6l-6.85714,0l0,-6l6.85714,0zm-6.85714,20.57141l0,-12.85713l20.57141,0l0.0017,12.85713l-20.57311,0z"/>
   </g>
   <g>
    <path fill="#828282" d="m19.625,15.49998l1.875,0l0,4.6875l-1.875,0l0,-4.6875zm-3.75,-4.6875l1.875,0l0,9.375l-1.875,0l0,-9.375zm-8.4375,9.375c-1.24275,-0.00149 -2.43416,-0.49583 -3.31292,-1.37458c-0.87875,-0.87875 -1.37309,-2.07017 -1.37458,-3.31292l1.875,0c0,0.55626 0.16495,1.10003 0.47399,1.56254c0.30904,0.46251 0.7483,0.823 1.26221,1.03587c0.51392,0.21287 1.07942,0.26857 1.62499,0.16005c0.54557,-0.10852 1.04671,-0.37639 1.44005,-0.76972c0.39333,-0.39334 0.6612,-0.89448 0.76972,-1.44005c0.10852,-0.54557 0.05282,-1.11107 -0.16005,-1.62499c-0.21287,-0.51391 -0.57336,-0.95317 -1.03587,-1.26221c-0.46251,-0.30904 -1.00628,-0.47399 -1.56254,-0.47399l0,-1.875c1.2432,0 2.43549,0.49386 3.31456,1.37294c0.87908,0.87907 1.37294,2.07136 1.37294,3.31456c0,1.2432 -0.49386,2.43549 -1.37294,3.31456c-0.87907,0.87908 -2.07136,1.37294 -3.31456,1.37294z"/>
   </g>
  </g>
 </g>

</svg>