<svg width="29" height="25" viewBox="0 0 29 25" fill="none" xmlns="http://www.w3.org/2000/svg">
<path d="M0 1.78371C0 0.798603 0.798603 0 1.78371 0H26.7557C27.7408 0 28.5394 0.798603 28.5394 1.78371C28.5394 2.76882 27.7408 3.56742 26.7557 3.56742H1.78371C0.798603 3.56742 0 2.76882 0 1.78371Z" fill="black"/>
<path d="M0 23.1883C0 22.2031 0.798603 21.4045 1.78371 21.4045H26.7557C27.7408 21.4045 28.5394 22.2031 28.5394 23.1883C28.5394 24.1734 27.7408 24.972 26.7557 24.972H1.78371C0.798603 24.972 0 24.1734 0 23.1883Z" fill="black"/>
<path d="M12.486 10.7023C11.5008 10.7023 10.7023 11.5008 10.7023 12.486C10.7023 13.4711 11.5008 14.2697 12.486 14.2697H26.7557C27.7408 14.2697 28.5394 13.4711 28.5394 12.486C28.5394 11.5008 27.7408 10.7023 26.7557 10.7023H12.486Z" fill="black"/>
</svg>
