<svg width="26" height="26" viewBox="0 0 26 26" fill="none" xmlns="http://www.w3.org/2000/svg">
<path d="M18.3175 5.47655L22.7941 1H2.26146C1.92396 1.00844 1.60312 1.14847 1.36744 1.39019C1.13176 1.63192 0.999895 1.95619 1 2.2938V23.7062C1 24.0493 1.13631 24.3784 1.37895 24.6211C1.62158 24.8637 1.95066 25 2.2938 25H23.7062C24.0493 25 24.3784 24.8637 24.6211 24.6211C24.8637 24.3784 25 24.0493 25 23.7062V7.68248L22.7941 9.88841M18.3822 5.47655L22.7941 9.88841L15.096 17.496L8.43935 19.7472L10.6647 13.11L18.3822 5.47655Z" stroke="#828282" stroke-linecap="round" stroke-linejoin="round"/>
</svg>
