<svg width="24.000000000000004" height="24.000000000000004" xmlns="http://www.w3.org/2000/svg" fill="none">
 <g>
  <title>Layer 1</title>
  <g id="svg_1">
   <g>
    <path fill="#828282" d="m23.1,9.525l-2.1,-0.675l-0.45,-1.125l1.05,-1.95c0.225,-0.45 0.15,-1.05 -0.225,-1.425l-1.8,-1.8c-0.375,-0.375 -0.975,-0.45 -1.425,-0.225l-1.95,1.05l-1.125,-0.45l-0.675,-2.1c-0.15,-0.45 -0.6,-0.825 -1.125,-0.825l-2.55,0c-0.525,0 -0.975,0.375 -1.05,0.9l-0.675,2.1c-0.45,0.075 -0.825,0.225 -1.2,0.45l-1.95,-1.05c-0.45,-0.225 -1.05,-0.15 -1.425,0.225l-1.8,1.8c-0.375,0.375 -0.45,0.975 -0.225,1.425l0.975,1.875c-0.15,0.375 -0.3,0.825 -0.45,1.2l-2.1,0.675c-0.45,0.15 -0.825,0.6 -0.825,1.125l0,2.55c0,0.525 0.375,0.975 0.9,1.125l2.1,0.675l0.45,1.125l-1.05,1.95c-0.225,0.45 -0.15,1.05 0.225,1.425l1.8,1.8c0.375,0.375 0.975,0.45 1.425,0.225l1.95,-1.05l1.125,0.45l0.675,2.175c0.15,0.45 0.6,0.825 1.125,0.825l2.55,0c0.525,0 0.975,-0.375 1.125,-0.825l0.675,-2.175l1.125,-0.45l1.95,1.05c0.45,0.225 1.05,0.15 1.425,-0.225l1.8,-1.8c0.375,-0.375 0.45,-0.975 0.225,-1.425l-1.05,-1.95l0.45,-1.125l2.175,-0.675c0.45,-0.15 0.825,-0.6 0.825,-1.125l0,-2.55c0,-0.525 -0.375,-1.05 -0.9,-1.2zm-0.6,3.525l-2.7,0.825l-0.075,0.375l-0.675,1.575l-0.225,0.375l1.35,2.475l-1.5,1.5l-2.475,-1.35l-0.375,0.225c-0.525,0.3 -1.05,0.525 -1.575,0.675l-0.375,0.075l-0.825,2.7l-2.1,0l-0.825,-2.7l-0.375,-0.075l-1.575,-0.675l-0.375,-0.225l-2.475,1.35l-1.5,-1.5l1.35,-2.475l-0.225,-0.375c-0.3,-0.525 -0.525,-1.05 -0.675,-1.575l-0.075,-0.375l-2.7,-0.825l0,-2.1l2.55,-0.75l0.15,-0.375c0.15,-0.6 0.375,-1.125 0.675,-1.65l0.225,-0.375l-1.275,-2.475l1.5,-1.5l2.4,1.35l0.375,-0.225c0.525,-0.3 1.05,-0.525 1.65,-0.675l0.375,-0.15l0.825,-2.625l2.1,0l0.825,2.625l0.375,0.15c0.525,0.15 1.05,0.375 1.575,0.675l0.375,0.225l2.475,-1.35l1.5,1.5l-1.35,2.475l0.225,0.375c0.3,0.525 0.525,1.05 0.675,1.575l0.075,0.375l2.7,0.825l0,2.1z"/>
   </g>
   <g>
    <path fill="#828282" d="m11.99997,6.75c-2.925,0 -5.25,2.325 -5.25,5.25c0,2.925 2.325,5.25 5.25,5.25c2.925,0 5.25005,-2.325 5.25005,-5.25c0,-2.925 -2.32505,-5.25 -5.25005,-5.25zm0,9c-2.1,0 -3.75,-1.65 -3.75,-3.75c0,-2.1 1.65,-3.75 3.75,-3.75c2.1,0 3.75,1.65 3.75,3.75c0,2.1 -1.65,3.75 -3.75,3.75z"/>
   </g>
  </g>
 </g>

</svg>