<svg width="18" height="24" viewBox="0 0 18 24" fill="none" xmlns="http://www.w3.org/2000/svg">
<path d="M0 3.00005C0 2.20439 0.316076 1.44131 0.878694 0.878694C1.44131 0.316076 2.20439 0 3.00005 0L15.0002 0C15.7959 0 16.559 0.316076 17.1216 0.878694C17.6842 1.44131 18.0003 2.20439 18.0003 3.00005V23.2504C18.0002 23.386 17.9634 23.5191 17.8936 23.6355C17.8239 23.7519 17.7239 23.8472 17.6043 23.9112C17.4847 23.9752 17.35 24.0056 17.2144 23.9991C17.0789 23.9927 16.9477 23.9495 16.8348 23.8744L9.00015 19.6518L1.16552 23.8744C1.05258 23.9495 0.92136 23.9927 0.78585 23.9991C0.650339 24.0056 0.515608 23.9752 0.396006 23.9112C0.276403 23.8472 0.176409 23.7519 0.106673 23.6355C0.0369366 23.5191 7.00818e-05 23.386 0 23.2504V3.00005ZM3.00005 1.50002C2.60222 1.50002 2.22068 1.65806 1.93937 1.93937C1.65806 2.22068 1.50002 2.60222 1.50002 3.00005V21.8494L8.58464 18.1263C8.70773 18.0444 8.85229 18.0007 9.00015 18.0007C9.148 18.0007 9.29256 18.0444 9.41565 18.1263L16.5003 21.8494V3.00005C16.5003 2.60222 16.3422 2.22068 16.0609 1.93937C15.7796 1.65806 15.3981 1.50002 15.0002 1.50002H3.00005Z" fill="#828282"/>
</svg>
