<svg width="24" height="24" viewBox="0 0 24 24" fill="none" xmlns="http://www.w3.org/2000/svg">
<path d="M22.2857 0H1.71429C1.25977 0.000453837 0.823996 0.181211 0.502604 0.502604C0.181211 0.823996 0.000453837 1.25977 0 1.71429V22.2857C0.000453837 22.7402 0.181211 23.176 0.502604 23.4974C0.823996 23.8188 1.25977 23.9995 1.71429 24H22.2857C22.7402 23.9993 23.1758 23.8185 23.4971 23.4971C23.8185 23.1758 23.9993 22.7402 24 22.2857V1.71429C23.9995 1.25977 23.8188 0.823996 23.4974 0.502604C23.176 0.181211 22.7402 0.000453837 22.2857 0ZM22.2857 7.71429H10.2857V1.71429H22.2857V7.71429ZM8.57143 1.71429V7.71429H1.71429V1.71429H8.57143ZM1.71429 22.2857V9.42857H22.2857L22.2874 22.2857H1.71429Z" fill="#828282"/>
</svg>
