<svg width="20" height="10" viewBox="0 0 20 10" fill="none" xmlns="http://www.w3.org/2000/svg">
<path d="M17.5 4.6875H19.375V9.375H17.5V4.6875ZM13.75 0H15.625V9.375H13.75V0ZM5.3125 9.375C4.06975 9.37351 2.87834 8.87917 1.99958 8.00042C1.12083 7.12167 0.626489 5.93025 0.625 4.6875H2.5C2.5 5.24376 2.66495 5.78753 2.97399 6.25004C3.28303 6.71255 3.72229 7.07304 4.2362 7.28591C4.75012 7.49878 5.31562 7.55448 5.86119 7.44596C6.40676 7.33744 6.9079 7.06957 7.30124 6.67624C7.69457 6.2829 7.96244 5.78176 8.07096 5.23619C8.17948 4.69062 8.12378 4.12512 7.91091 3.6112C7.69804 3.09729 7.33755 2.65803 6.87504 2.34899C6.41253 2.03995 5.86876 1.875 5.3125 1.875V0C6.5557 0 7.74799 0.49386 8.62706 1.37294C9.50614 2.25201 10 3.4443 10 4.6875C10 5.9307 9.50614 7.12299 8.62706 8.00206C7.74799 8.88114 6.5557 9.375 5.3125 9.375Z" fill="#828282"/>
</svg>
