<svg width="32" height="32" xmlns="http://www.w3.org/2000/svg" fill="none">
 <g id="Layer_1">
  <title>Layer 1</title>
  <g id="svg_1">
   <g>
    <path fill="#FF6161" d="m26.2859,4.57143l-2.536,0l-0.6469,-2.5875c-0.2937,-1.16786 -1.3383,-1.98393 -2.5429,-1.98393l-9.12,0c-1.2046,0 -2.25028,0.81607 -2.54291,1.98518l-0.64694,2.58625l-2.53596,0c-3.15076,0 -5.71429,2.56352 -5.71429,5.71427l0,16c0,3.1508 2.56353,5.7143 5.71429,5.7143l20.57141,0c3.1508,0 5.7143,-2.5635 5.7143,-5.7143l0,-16c0,-3.15075 -2.5635,-5.71427 -5.7143,-5.71427l0.0002,0zm-15.1713,-2.03187c0.0378,-0.14975 0.1714,-0.25383 0.3258,-0.25383l9.12,0c0.1543,0 0.288,0.10511 0.3257,0.25383l0.5087,2.03187l-10.7873,0l0.5071,-2.03187zm18.5998,23.74594c0,1.8903 -1.5382,3.4286 -3.4285,3.4286l-20.57146,0c-1.89028,0 -3.42857,-1.5383 -3.42857,-3.4286l0,-16c0,-1.89027 1.53829,-3.42855 3.42857,-3.42855l20.57146,0c1.8903,0 3.4285,1.53828 3.4285,3.42855l0,16z"/>
   </g>
   <g>
    <path fill="#FF6161" d="m16.00005,6.85713c-5.04109,0 -9.1429,4.10181 -9.1429,9.14286c0,5.04109 4.10181,9.14289 9.1429,9.14289c5.041,0 9.1428,-4.1018 9.1428,-9.14289c0,-5.04105 -4.1018,-9.14286 -9.1428,-9.14286zm0,15.99995c-3.78166,0 -6.85719,-3.0755 -6.85719,-6.85709c0,-3.78162 3.07553,-6.85715 6.85719,-6.85715c3.7816,0 6.8571,3.07553 6.8571,6.85715c0,3.78159 -3.0755,6.85709 -6.8571,6.85709z"/>
   </g>
   <g>
    <path fill="#FF6161" d="m8.28579,9.50006c0,-0.63087 -0.51199,-1.14286 -1.14286,-1.14286l-2.28571,0c-0.63087,0 -1.14286,0.51199 -1.14286,1.14286c0,0.63087 0.51199,1.14285 1.14286,1.14285l2.28571,0c0.63087,0 1.14286,-0.51198 1.14286,-1.14285z"/>
   </g>
   <g>
    <path fill="#FF6161" d="m19.54761,14.80951c-0.63189,0 -1.14286,0.51199 -1.14286,1.14286c0,1.26047 -1.02524,2.28571 -2.28571,2.28571c-0.63087,0 -1.14286,0.51199 -1.14286,1.14286c0,0.63087 0.51199,1.14285 1.14286,1.14285c2.52114,0 4.57142,-2.05028 4.57142,-4.57142c0,-0.63087 -0.51096,-1.14286 -1.14285,-1.14286z"/>
   </g>
  </g>
 </g>

</svg>