<svg width="13" height="13" viewBox="0 0 13 13" fill="none" xmlns="http://www.w3.org/2000/svg">
<path d="M0 1.625C0 1.19402 0.171205 0.780698 0.475951 0.475951C0.780698 0.171205 1.19402 0 1.625 0L11.375 0C11.806 0 12.2193 0.171205 12.524 0.475951C12.8288 0.780698 13 1.19402 13 1.625V8.125C13 8.55598 12.8288 8.9693 12.524 9.27405C12.2193 9.57879 11.806 9.75 11.375 9.75H3.58637C3.3709 9.75005 3.16428 9.83568 3.01194 9.98806L0.693875 12.3061C0.637106 12.363 0.564729 12.4018 0.485904 12.4176C0.40708 12.4334 0.325351 12.4254 0.251062 12.3947C0.176773 12.364 0.113264 12.3119 0.0685728 12.2451C0.0238815 12.1783 1.70746e-05 12.0997 0 12.0193L0 1.625ZM4.0625 4.875C4.0625 4.65951 3.9769 4.45285 3.82452 4.30048C3.67215 4.1481 3.46549 4.0625 3.25 4.0625C3.03451 4.0625 2.82785 4.1481 2.67548 4.30048C2.5231 4.45285 2.4375 4.65951 2.4375 4.875C2.4375 5.09049 2.5231 5.29715 2.67548 5.44952C2.82785 5.6019 3.03451 5.6875 3.25 5.6875C3.46549 5.6875 3.67215 5.6019 3.82452 5.44952C3.9769 5.29715 4.0625 5.09049 4.0625 4.875ZM7.3125 4.875C7.3125 4.65951 7.2269 4.45285 7.07452 4.30048C6.92215 4.1481 6.71549 4.0625 6.5 4.0625C6.28451 4.0625 6.07785 4.1481 5.92548 4.30048C5.7731 4.45285 5.6875 4.65951 5.6875 4.875C5.6875 5.09049 5.7731 5.29715 5.92548 5.44952C6.07785 5.6019 6.28451 5.6875 6.5 5.6875C6.71549 5.6875 6.92215 5.6019 7.07452 5.44952C7.2269 5.29715 7.3125 5.09049 7.3125 4.875ZM9.75 5.6875C9.96549 5.6875 10.1722 5.6019 10.3245 5.44952C10.4769 5.29715 10.5625 5.09049 10.5625 4.875C10.5625 4.65951 10.4769 4.45285 10.3245 4.30048C10.1722 4.1481 9.96549 4.0625 9.75 4.0625C9.53451 4.0625 9.32785 4.1481 9.17548 4.30048C9.0231 4.45285 8.9375 4.65951 8.9375 4.875C8.9375 5.09049 9.0231 5.29715 9.17548 5.44952C9.32785 5.6019 9.53451 5.6875 9.75 5.6875Z" fill="#828282"/>
</svg>
