<svg width="32" height="32" xmlns="http://www.w3.org/2000/svg" fill="none">
 <g id="Layer_1">
  <title>Layer 1</title>
  <g id="svg_1">
   <g>
    <path fill="#828282" d="m22.20835,20.90311l-0.1417,-0.125c-0.4019,-0.358 -0.7537,-0.7687 -1.0458,-1.2208c-0.3191,-0.62393 -0.5103,-1.30531 -0.5625,-2.00416l0,-2.05833c-0.0017,-0.25002 -0.024,-0.49948 -0.0667,-0.74583c-0.7058,-0.14507 -1.33974,-0.52958 -1.79457,-1.08843c-0.45482,-0.55885 -0.70255,-1.2577 -0.70125,-1.97824l0,-0.2625c-0.43503,-0.21409 -0.90243,-0.35487 -1.38333,-0.41667l0,-0.525c0,-0.14752 -0.05861,-0.28901 -0.16293,-0.39333c-0.10431,-0.10431 -0.2458,-0.16292 -0.39332,-0.16292c-0.14753,0 -0.28901,0.05861 -0.39333,0.16292c-0.10432,0.10432 -0.16292,0.24581 -0.16292,0.39333l0,0.54584c-1.07679,0.15189 -2.06226,0.68822 -2.77449,1.50997c-0.71224,0.82174 -1.10313,1.87342 -1.10051,2.96086l0,2.05833c-0.05219,0.69885 -0.24343,1.38023 -0.5625,2.00416c-0.28714,0.451 -0.63326,0.8616 -1.02917,1.2208l-0.14167,0.125l0,1.175l12.41669,0l0,-1.175z"/>
   </g>
   <g>
    <circle fill="#FF6941" r="2.5" cy="12.25006" cx="20.24993"/>
   </g>
  </g>
 </g>

</svg>