<svg width="32" height="32" viewBox="0 0 32 32" fill="none" xmlns="http://www.w3.org/2000/svg">
<path d="M26.2859 4.57143H23.7499L23.103 1.98393C22.8093 0.816065 21.7647 0 20.5601 0H11.4401C10.2355 0 9.18982 0.816065 8.89719 1.98518L8.25025 4.57143H5.71429C2.56353 4.57143 0 7.13495 0 10.2857V26.2857C0 29.4365 2.56353 32 5.71429 32H26.2857C29.4365 32 32 29.4365 32 26.2857V10.2857C32 7.13495 29.4365 4.57143 26.2857 4.57143H26.2859ZM11.1146 2.53956C11.1524 2.38981 11.286 2.28573 11.4404 2.28573H20.5604C20.7147 2.28573 20.8484 2.39084 20.8861 2.53956L21.3948 4.57143H10.6075L11.1146 2.53956ZM29.7144 26.2855C29.7144 28.1758 28.1762 29.7141 26.2859 29.7141H5.71444C3.82416 29.7141 2.28587 28.1758 2.28587 26.2855V10.2855C2.28587 8.39523 3.82416 6.85695 5.71444 6.85695H26.2859C28.1762 6.85695 29.7144 8.39523 29.7144 10.2855V26.2855Z" fill="#FF6161"/>
</svg>
