<svg width="13" height="13" viewBox="0 0 13 13" fill="none" xmlns="http://www.w3.org/2000/svg">
<path d="M12.6875 11.7208L12.5458 11.5958C12.1439 11.2378 11.7921 10.8271 11.5 10.375C11.1809 9.75107 10.9897 9.06969 10.9375 8.37084V6.31251C10.9358 6.06249 10.9135 5.81303 10.8708 5.56668C10.165 5.42161 9.53106 5.0371 9.07623 4.47825C8.62141 3.9194 8.37368 3.22055 8.37498 2.50001V2.23751C7.93995 2.02342 7.47255 1.88264 6.99165 1.82084V1.29584C6.99165 1.14832 6.93304 1.00683 6.82872 0.902515C6.72441 0.798198 6.58292 0.739594 6.4354 0.739594C6.28787 0.739594 6.14639 0.798198 6.04207 0.902515C5.93775 1.00683 5.87915 1.14832 5.87915 1.29584V1.84168C4.80236 1.99357 3.81689 2.5299 3.10466 3.35165C2.39242 4.17339 2.00153 5.22507 2.00415 6.31251V8.37084C1.95196 9.06969 1.76072 9.75107 1.44165 10.375C1.15451 10.826 0.808394 11.2366 0.41248 11.5958L0.270813 11.7208V12.8958H12.6875V11.7208Z" fill="#828282"/>
</svg>
